<svg xmlns="http://www.w3.org/2000/svg" viewBox="0 0 512 512">
  <defs>
    <radialGradient id="bg" cx="50%" cy="50%" r="50%">
      <stop offset="0%" stop-color="#111d35"/>
      <stop offset="100%" stop-color="#0b1526"/>
    </radialGradient>
    <radialGradient id="glow" cx="50%" cy="45%" r="40%">
      <stop offset="0%" stop-color="#2a6b6e" stop-opacity="0.3"/>
      <stop offset="100%" stop-color="#2a6b6e" stop-opacity="0"/>
    </radialGradient>
  </defs>
  <!-- Background -->
  <rect width="512" height="512" rx="96" fill="url(#bg)"/>
  <!-- Teal glow -->
  <circle cx="256" cy="230" r="160" fill="url(#glow)"/>
  <!-- Candle flame - outer -->
  <path d="M256 120 C 220 180, 200 220, 200 270 C 200 300, 224 330, 256 330 C 288 330, 312 300, 312 270 C 312 220, 292 180, 256 120Z" fill="#e8b86d" opacity="0.85"/>
  <!-- Candle flame - inner -->
  <path d="M256 160 C 238 200, 226 230, 226 260 C 226 280, 240 298, 256 298 C 272 298, 286 280, 286 260 C 286 230, 274 200, 256 160Z" fill="#f0d4a0" opacity="0.9"/>
  <!-- Candle flame - core -->
  <ellipse cx="256" cy="270" rx="14" ry="20" fill="#f5efe6" opacity="0.7"/>
  <!-- Candle body -->
  <rect x="236" y="326" width="40" height="80" rx="4" fill="#3a8b8e" opacity="0.7"/>
  <!-- Candle base -->
  <rect x="224" y="396" width="64" height="12" rx="6" fill="#2a6b6e" opacity="0.6"/>
</svg>
